<?xml version="1.0" encoding="UTF-8" standalone="no"?>
<svg width="185px" height="19px" viewBox="0 0 185 19" version="1.1" xmlns="http://www.w3.org/2000/svg" xmlns:xlink="http://www.w3.org/1999/xlink">
    <!-- Generator: Sketch 39.1 (31720) - http://www.bohemiancoding.com/sketch -->
    <title>MICHELLE CHAN</title>
    <desc>Created with Sketch.</desc>
    <defs></defs>
    <g id="Page-1" stroke="none" stroke-width="1" fill="none" fill-rule="evenodd">
        <g id="Artboard" transform="translate(-421.000000, -233.000000)" fill="#F6F6F6">
            <path d="M437.853169,234.02 L437.853169,251 L436.785169,251 L436.785169,236.528 C436.785169,236.319999 436.797169,236.100001 436.821169,235.868 L430.137169,247.736 C430.025168,247.944001 429.86517,248.048 429.657169,248.048 L429.465169,248.048 C429.257168,248.048 429.09717,247.944001 428.985169,247.736 L422.121169,235.844 C422.145169,236.084001 422.157169,236.311999 422.157169,236.528 L422.157169,251 L421.077169,251 L421.077169,234.02 L421.929169,234.02 C422.04117,234.02 422.129169,234.032 422.193169,234.056 C422.257169,234.08 422.321169,234.143999 422.385169,234.248 L429.237169,246.056 C429.35717,246.280001 429.461169,246.519999 429.549169,246.776 C429.597169,246.647999 429.649169,246.522001 429.705169,246.398 C429.761169,246.273999 429.821169,246.156001 429.885169,246.044 L436.545169,234.248 C436.609169,234.143999 436.675169,234.08 436.743169,234.056 C436.811169,234.032 436.901168,234.02 437.013169,234.02 L437.853169,234.02 Z M444.105169,251 L442.869169,251 L442.869169,234.02 L444.105169,234.02 L444.105169,251 Z M461.373169,248.144 C461.453169,248.144 461.521169,248.172 461.577169,248.228 L462.057169,248.744 C461.705167,249.120002 461.323171,249.457999 460.911169,249.758 C460.499167,250.058001 460.047171,250.313999 459.555169,250.526 C459.063167,250.738001 458.523172,250.901999 457.935169,251.018 C457.347166,251.134001 456.701173,251.192 455.997169,251.192 C454.821163,251.192 453.743174,250.986002 452.763169,250.574 C451.783164,250.161998 450.941173,249.578004 450.237169,248.822 C449.533165,248.065996 448.987171,247.152005 448.599169,246.08 C448.211167,245.007995 448.017169,243.816007 448.017169,242.504 C448.017169,241.215994 448.217167,240.040005 448.617169,238.976 C449.017171,237.911995 449.577165,236.998004 450.297169,236.234 C451.017173,235.469996 451.881164,234.878002 452.889169,234.458 C453.897174,234.037998 455.009163,233.828 456.225169,233.828 C457.385175,233.828 458.413165,234.007998 459.309169,234.368 C460.205173,234.728002 461.021165,235.235997 461.757169,235.892 L461.385169,236.432 C461.321169,236.528 461.22117,236.576 461.085169,236.576 C460.989169,236.576 460.83317,236.488001 460.617169,236.312 C460.401168,236.135999 460.101171,235.942001 459.717169,235.73 C459.333167,235.517999 458.855172,235.324001 458.283169,235.148 C457.711166,234.971999 457.025173,234.884 456.225169,234.884 C455.201164,234.884 454.263173,235.059998 453.411169,235.412 C452.559165,235.764002 451.827172,236.267997 451.215169,236.924 C450.603166,237.580003 450.125171,238.379995 449.781169,239.324 C449.437167,240.268005 449.265169,241.327994 449.265169,242.504 C449.265169,243.704006 449.439167,244.775995 449.787169,245.72 C450.135171,246.664005 450.613166,247.461997 451.221169,248.114 C451.829172,248.766003 452.547165,249.265998 453.375169,249.614 C454.203173,249.962002 455.097164,250.136 456.057169,250.136 C456.665172,250.136 457.207167,250.096 457.683169,250.016 C458.159171,249.936 458.597167,249.816001 458.997169,249.656 C459.397171,249.495999 459.769167,249.300001 460.113169,249.068 C460.457171,248.835999 460.797167,248.564002 461.133169,248.252 C461.173169,248.22 461.213169,248.194 461.253169,248.174 C461.293169,248.154 461.333169,248.144 461.373169,248.144 L461.373169,248.144 Z M478.449169,234.02 L478.449169,251 L477.213169,251 L477.213169,242.864 L466.581169,242.864 L466.581169,251 L465.345169,251 L465.345169,234.02 L466.581169,234.02 L466.581169,241.94 L477.213169,241.94 L477.213169,234.02 L478.449169,234.02 Z M493.665169,249.98 L493.641169,251 L483.465169,251 L483.465169,234.02 L493.641169,234.02 L493.641169,235.04 L484.701169,235.04 L484.701169,241.904 L492.141169,241.904 L492.141169,242.9 L484.701169,242.9 L484.701169,249.98 L493.665169,249.98 Z M506.661169,249.956 L506.661169,251 L497.385169,251 L497.385169,234.02 L498.621169,234.02 L498.621169,249.956 L506.661169,249.956 Z M518.805169,249.956 L518.805169,251 L509.529169,251 L509.529169,234.02 L510.765169,234.02 L510.765169,249.956 L518.805169,249.956 Z M531.873169,249.98 L531.849169,251 L521.673169,251 L521.673169,234.02 L531.849169,234.02 L531.849169,235.04 L522.909169,235.04 L522.909169,241.904 L530.349169,241.904 L530.349169,242.9 L522.909169,242.9 L522.909169,249.98 L531.873169,249.98 Z M554.361169,248.144 C554.441169,248.144 554.509169,248.172 554.565169,248.228 L555.045169,248.744 C554.693167,249.120002 554.311171,249.457999 553.899169,249.758 C553.487167,250.058001 553.035171,250.313999 552.543169,250.526 C552.051167,250.738001 551.511172,250.901999 550.923169,251.018 C550.335166,251.134001 549.689173,251.192 548.985169,251.192 C547.809163,251.192 546.731174,250.986002 545.751169,250.574 C544.771164,250.161998 543.929173,249.578004 543.225169,248.822 C542.521165,248.065996 541.975171,247.152005 541.587169,246.08 C541.199167,245.007995 541.005169,243.816007 541.005169,242.504 C541.005169,241.215994 541.205167,240.040005 541.605169,238.976 C542.005171,237.911995 542.565165,236.998004 543.285169,236.234 C544.005173,235.469996 544.869164,234.878002 545.877169,234.458 C546.885174,234.037998 547.997163,233.828 549.213169,233.828 C550.373175,233.828 551.401165,234.007998 552.297169,234.368 C553.193173,234.728002 554.009165,235.235997 554.745169,235.892 L554.373169,236.432 C554.309169,236.528 554.20917,236.576 554.073169,236.576 C553.977169,236.576 553.82117,236.488001 553.605169,236.312 C553.389168,236.135999 553.089171,235.942001 552.705169,235.73 C552.321167,235.517999 551.843172,235.324001 551.271169,235.148 C550.699166,234.971999 550.013173,234.884 549.213169,234.884 C548.189164,234.884 547.251173,235.059998 546.399169,235.412 C545.547165,235.764002 544.815172,236.267997 544.203169,236.924 C543.591166,237.580003 543.113171,238.379995 542.769169,239.324 C542.425167,240.268005 542.253169,241.327994 542.253169,242.504 C542.253169,243.704006 542.427167,244.775995 542.775169,245.72 C543.123171,246.664005 543.601166,247.461997 544.209169,248.114 C544.817172,248.766003 545.535165,249.265998 546.363169,249.614 C547.191173,249.962002 548.085164,250.136 549.045169,250.136 C549.653172,250.136 550.195167,250.096 550.671169,250.016 C551.147171,249.936 551.585167,249.816001 551.985169,249.656 C552.385171,249.495999 552.757167,249.300001 553.101169,249.068 C553.445171,248.835999 553.785167,248.564002 554.121169,248.252 C554.161169,248.22 554.201169,248.194 554.241169,248.174 C554.281169,248.154 554.321169,248.144 554.361169,248.144 L554.361169,248.144 Z M571.437169,234.02 L571.437169,251 L570.201169,251 L570.201169,242.864 L559.569169,242.864 L559.569169,251 L558.333169,251 L558.333169,234.02 L559.569169,234.02 L559.569169,241.94 L570.201169,241.94 L570.201169,234.02 L571.437169,234.02 Z M585.609169,244.832 L582.153169,236.252 C582.033168,235.971999 581.91717,235.636002 581.805169,235.244 C581.757169,235.436001 581.705169,235.617999 581.649169,235.79 C581.593169,235.962001 581.533169,236.119999 581.469169,236.264 L578.013169,244.832 L585.609169,244.832 Z M589.365169,251 L588.417169,251 C588.305168,251 588.213169,250.97 588.141169,250.91 C588.069169,250.85 588.013169,250.772 587.973169,250.676 L585.981169,245.744 L577.641169,245.744 L575.649169,250.676 C575.617169,250.764 575.561169,250.84 575.481169,250.904 C575.401169,250.968 575.30517,251 575.193169,251 L574.257169,251 L581.205169,234.02 L582.417169,234.02 L589.365169,251 Z M605.289169,234.02 L605.289169,251 L604.713169,251 C604.609168,251 604.523169,250.982 604.455169,250.946 C604.387169,250.91 604.321169,250.848 604.257169,250.76 L593.229169,236.024 C593.253169,236.264001 593.265169,236.491999 593.265169,236.708 L593.265169,251 L592.185169,251 L592.185169,234.02 L592.797169,234.02 C592.90917,234.02 592.995169,234.034 593.055169,234.062 C593.115169,234.09 593.181169,234.152 593.253169,234.248 L604.257169,248.948 C604.233169,248.707999 604.221169,248.480001 604.221169,248.264 L604.221169,234.02 L605.289169,234.02 Z" id="MICHELLE-CHAN"></path>
        </g>
    </g>
</svg>