<?xml version="1.0" encoding="UTF-8" standalone="no"?>
<svg width="3140px" height="3140px" viewBox="0 0 3140 3140" version="1.1" xmlns="http://www.w3.org/2000/svg" xmlns:xlink="http://www.w3.org/1999/xlink" style="background: #FFFFFF;">
    <!-- Generator: Sketch 3.8.3 (29802) - http://www.bohemiancoding.com/sketch -->
    <title>Tesla Copy 2</title>
    <desc>Created with Sketch.</desc>
    <defs>
        <rect id="path-1" x="0" y="0" width="1843.79606" height="2896"></rect>
        <filter x="-50%" y="-50%" width="200%" height="200%" filterUnits="objectBoundingBox" id="filter-2">
            <feOffset dx="0" dy="2" in="SourceAlpha" result="shadowOffsetOuter1"></feOffset>
            <feGaussianBlur stdDeviation="1" in="shadowOffsetOuter1" result="shadowBlurOuter1"></feGaussianBlur>
            <feComposite in="shadowBlurOuter1" in2="SourceAlpha" operator="out" result="shadowBlurOuter1"></feComposite>
            <feColorMatrix values="0 0 0 0 0   0 0 0 0 0   0 0 0 0 0  0 0 0 0.24 0" type="matrix" in="shadowBlurOuter1" result="shadowMatrixOuter1"></feColorMatrix>
            <feOffset dx="0" dy="2" in="SourceAlpha" result="shadowOffsetOuter2"></feOffset>
            <feComposite in="shadowOffsetOuter2" in2="SourceAlpha" operator="out" result="shadowOffsetOuter2"></feComposite>
            <feColorMatrix values="0 0 0 0 0   0 0 0 0 0   0 0 0 0 0  0 0 0 0.12 0" type="matrix" in="shadowOffsetOuter2" result="shadowMatrixOuter2"></feColorMatrix>
            <feMerge>
                <feMergeNode in="shadowMatrixOuter1"></feMergeNode>
                <feMergeNode in="shadowMatrixOuter2"></feMergeNode>
            </feMerge>
        </filter>
        <mask id="mask-3" maskContentUnits="userSpaceOnUse" maskUnits="objectBoundingBox" x="0" y="0" width="1843.79606" height="2896" fill="white">
            <use xlink:href="#path-1"></use>
        </mask>
    </defs>
    <g id="Page-1" stroke="none" stroke-width="1" fill="none" fill-rule="evenodd">
        <g id="Tesla-Copy-2">
            <g id="Group-4" transform="translate(648.000000, 122.000000)">
                <g id="Group-3">
                    <g id="Rectangle-121-Copy">
                        <use fill="black" fill-opacity="1" filter="url(#filter-2)" xlink:href="#path-1"></use>
                        <use stroke="#5A290C" mask="url(#mask-3)" stroke-width="98" fill="#A0522D" fill-rule="evenodd" xlink:href="#path-1"></use>
                    </g>
                    <rect id="Rectangle-122" fill="#5A290C" transform="translate(1721.292668, 121.943741) rotate(45.000000) translate(-1721.292668, -121.943741) " x="1702.17726" y="13.6463369" width="38.2308224" height="216.594809"></rect>
                    <rect id="Rectangle-122-Copy" fill="#5A290C" transform="translate(133.439178, 2764.400406) rotate(45.000000) translate(-133.439178, -2764.400406) " x="114.323767" y="2656.103" width="38.2308224" height="216.594809"></rect>
                    <rect id="Rectangle-122-Copy-2" fill="#5A290C" transform="translate(1709.823421, 2764.400406) rotate(135.000000) translate(-1709.823421, -2764.400406) " x="1690.70801" y="2656.103" width="38.2308224" height="216.594809"></rect>
                    <rect id="Rectangle-122-Copy-3" fill="#5A290C" transform="translate(120.695570, 121.943741) rotate(135.000000) translate(-120.695570, -121.943741) " x="101.580159" y="13.6463369" width="38.2308224" height="216.594809"></rect>
                </g>
                <g id="Group-2" transform="translate(177.847716, 177.824561)">
                    <rect id="Rectangle-121" fill="#000000" x="0" y="-2.27373675e-13" width="1487.17899" height="2539.25561" rx="5"></rect>
                    <g id="Group-2-Copy" transform="translate(0.000000, 47.141223)">
                        <text id="Goodmorning,-Michell" opacity="0.900000036" font-family="Avenir-Book, Avenir" font-size="87.120683" font-weight="normal" letter-spacing="3" fill="#FFFFFF">
                            <tspan x="237.073859" y="298.120413">Goodmorning, Michelle</tspan>
                            <tspan x="1227.82201" y="298.120413">.</tspan>
                        </text>
                        <g id="Quotes" transform="translate(141.359461, 1481.716660)">
                            <text font-family="Avenir-Book, Avenir" font-size="154.881214" font-weight="normal" fill="#FFFFFF">
                                <tspan x="284.942561" y="155">Quotes</tspan>
                            </text>
                            <g id="Quotes-icon-Copy" transform="translate(0.000000, 30.053268)" fill="#787AFF" fill-opacity="0.95">
                                <g id="Group">
                                    <path d="M0.848156768,69.6962851 L0.848156768,139.182017 L70.3176181,139.182017 L70.3176181,69.6962851 L30.6207831,69.6962851 C30.6207831,47.7688154 48.395283,29.9901524 70.3176181,29.9901524 L70.3176181,0.210552827 C31.9472383,0.210552827 0.848156768,31.3188551 0.848156768,69.6962851 L0.848156768,69.6962851 Z M169.557769,29.9901524 L169.557769,0.210552827 C131.189326,0.210552827 100.088308,31.3188551 100.088308,69.6962851 L100.088308,139.182017 L169.557769,139.182017 L169.557769,69.6962851 L129.860934,69.6962851 C129.860934,47.7688154 147.635434,29.9901524 169.557769,29.9901524 L169.557769,29.9901524 Z" id="Shape"></path>
                                </g>
                            </g>
                        </g>
                        <g id="Quotes-Copy" transform="translate(141.359461, 1801.302606)">
                            <text id="Settings" font-family="Avenir-Book, Avenir" font-size="154.881214" font-weight="normal" fill="#FFFFFF">
                                <tspan x="290.464647" y="155">Settings</tspan>
                            </text>
                            <g id="noun_365891_cc" transform="translate(0.000000, 32.927037)" fill="#F8E81C">
                                <g id="Group">
                                    <path d="M83.266532,16.5752618 C44.6308612,16.5752618 13.3226451,47.7367539 13.3226451,86.1913613 C13.3226451,124.645969 44.6308612,155.807461 83.266532,155.807461 C121.902203,155.807461 153.210419,124.645969 153.210419,86.1913613 C153.210419,47.7367539 121.902203,16.5752618 83.266532,16.5752618 L83.266532,16.5752618 Z M83.266532,116.026832 C66.6132256,116.026832 53.2905805,102.766623 53.2905805,86.1913613 C53.2905805,69.6160995 66.6132256,56.3558901 83.266532,56.3558901 C99.9198385,56.3558901 113.242484,69.6160995 113.242484,86.1913613 C113.242484,102.766623 99.9198385,116.026832 83.266532,116.026832 L83.266532,116.026832 Z" id="Shape"></path>
                                    <polyline id="Shape" points="56.6212418 33.1505236 109.911822 33.1505236 99.9198385 0 66.6132256 0"></polyline>
                                    <polyline id="Shape" points="109.911822 139.232199 56.6212418 139.232199 66.6132256 172.382723 99.9198385 172.382723"></polyline>
                                    <polyline id="Shape" points="23.6476951 82.5448037 50.2929854 36.7970812 16.6533064 28.8409555 0 57.3504058"></polyline>
                                    <polyline id="Shape" points="142.885369 89.8379189 116.240079 135.585641 149.879758 143.541767 166.533064 115.032317"></polyline>
                                    <polyline id="Shape" points="116.240079 36.7970812 142.885369 82.5448037 166.533064 57.3504058 149.879758 28.8409555"></polyline>
                                    <polyline id="Shape" points="50.2929854 135.585641 23.6476951 89.8379189 0 115.032317 16.6533064 143.541767"></polyline>
                                </g>
                            </g>
                        </g>
                        <g id="Calendar" transform="translate(141.359461, 1162.130714)">
                            <text font-family="Avenir-Book, Avenir" font-size="154.881214" font-weight="normal" fill="#FFFFFF">
                                <tspan x="286.697657" y="155">Calendar</tspan>
                            </text>
                            <g id="Calendar-icon-Copy" transform="translate(0.000000, 17.431961)" fill-opacity="0.949999988" fill="#FF3B30">
                                <path d="M157.61917,11.8095865 L153.321154,11.8095865 C153.321154,5.30108759 148.040674,0.024494503 141.529485,0.024494503 C135.018295,0.024494503 129.733608,5.30108759 129.733608,11.8095865 L114.99034,11.8095865 C114.99034,5.30108759 109.70986,0.024494503 103.19867,0.024494503 C96.6874809,0.024494503 91.4027934,5.30108759 91.4027934,11.8095865 L78.1342728,11.8095865 C78.1342728,5.30108759 72.8537928,0.024494503 66.3426034,0.024494503 C59.8251027,0.024494503 54.5467266,5.30108759 54.5467266,11.8095865 L41.2782059,11.8095865 C41.2782059,5.30108759 35.9935184,0.024494503 29.482329,0.024494503 C22.9711396,0.024494503 17.6906597,5.30108759 17.6906597,11.8095865 L12.6647367,11.8095865 C6.15144355,11.8095865 0.873067399,17.0861796 0.873067399,23.5946785 L0.873067399,156.981066 C0.873067399,163.489564 6.15354733,168.766158 12.6647367,168.766158 L157.61917,168.766158 C164.132463,168.766158 169.415047,163.487462 169.415047,156.981066 L169.415047,23.5946785 C169.415047,17.0861796 164.132463,11.8095865 157.61917,11.8095865 L157.61917,11.8095865 Z M145.825397,145.195974 L24.4606136,145.195974 L24.4606136,70.7392508 L145.825397,70.7392508 L145.825397,145.195974 L145.825397,145.195974 Z" id="Shape"></path>
                            </g>
                        </g>
                        <g id="Screensaver" transform="translate(164.596633, 521.021937)">
                            <text id="Screensavers" font-family="Avenir-Book, Avenir" font-size="154.881214" font-weight="normal" fill="#FFFFFF">
                                <tspan x="264.109116" y="155">Screensavers</tspan>
                            </text>
                            <g id="Screensaver-icon-Copy" transform="translate(0.000000, 17.431961)" fill="#00F5EA" fill-opacity="0.949999988">
                                <g id="Group">
                                    <path d="M98.0195542,90.86006 C96.8959078,86.2837091 94.5825183,82.347637 91.4800977,78.8630434 C87.3614381,74.2353882 82.4227645,71.1940644 76.5360144,70.0325332 C58.5989833,58.7681432 45.1172926,65.3125301 45.1172926,65.3125301 C44.2848855,65.7168086 43.9110252,66.7346875 44.2848855,67.5760794 L48.4076762,76.8498594 C46.1996285,78.4341387 44.0246292,79.9958441 41.8372368,81.5370278 C41.0420091,82.0972716 40.174488,82.5672197 39.3069669,83.0104896 C38.5014117,83.4229768 37.7268393,83.2752202 37.0658708,82.6472546 C36.5598169,82.1670456 36.062025,81.6745235 35.5539055,81.1943145 C32.1189352,77.945721 28.0828966,76.2424156 23.2929409,76.5625549 C22.8715736,76.5912854 22.2498501,76.9175812 22.1321151,77.2500336 C22.0123146,77.5886425 22.3118159,78.1714603 22.5844654,78.530591 C24.1150204,80.5519836 25.8149487,82.4584544 27.2029824,84.5680906 C27.9920135,85.766561 28.4753466,87.2400228 28.7748479,88.6580759 C29.2024119,90.6692077 28.4361016,92.5613133 27.3207174,94.1825318 C25.8252763,96.3578375 24.0881686,98.3689693 22.4977133,100.48271 C22.2457191,100.817214 22.0329699,101.365145 22.1362462,101.718119 C22.2229983,102.01158 22.8034112,102.354294 23.1566162,102.346085 C24.6871713,102.311198 26.2466437,102.302989 27.7400192,102.013633 C31.2204312,101.338467 33.9903021,99.3909526 36.4193611,96.8955075 C37.7950016,95.4815587 38.4353148,95.3153325 40.2219951,96.1669852 C41.7566812,96.8996118 43.2252705,97.7840994 44.6566803,98.7014217 C47.2076053,100.337005 49.725482,102.032102 52.3032589,103.745669 L52.2991279,103.743616 L46.0591727,107.414958 C45.2618795,107.882854 45.1338169,108.812489 45.7720645,109.477394 C45.7720645,109.477394 53.5260505,117.565017 67.2287525,108.991028 L67.2246214,108.988976 C74.5716988,109.280385 81.5139329,107.761776 88.0286031,104.344904 C91.3809524,102.586189 94.4090141,100.408832 96.6852242,97.3244121 C98.1310926,95.3748456 98.6082292,93.2549485 98.0195542,90.86006 L98.0195542,90.86006 Z M79.6260418,90.3777988 C77.488222,90.3777988 75.7552454,88.6560238 75.7552454,86.5320224 C75.7552454,85.3150824 76.3253307,84.2315339 77.213507,83.5255856 C77.8786065,82.9407156 78.7481931,82.5877415 79.6859421,82.5959502 C80.8240471,82.6082632 81.8506137,83.1500375 82.5239753,83.9791163 C83.1312401,84.6583863 83.4989038,85.5510826 83.4989038,86.5299702 C83.4968382,88.6560238 81.7638616,90.3777988 79.6260418,90.3777988 L79.6260418,90.3777988 Z M123.330514,35.2727885 L123.33258,14.038931 C123.33258,8.29899678 119.817054,3.37377614 114.808153,1.27234867 C113.139207,0.570504725 111.302954,0.180591424 109.373753,0.180591424 L62.0112329,0.182643599 L14.5557644,0.180591424 C12.6286283,0.180591424 10.7923753,0.568452549 9.12136448,1.27234867 C4.11246302,3.37377614 0.596937123,8.29694461 0.599002649,14.038931 L0.601068176,35.2727885 L0.613461334,35.2727885 L0.596937123,158.345844 C0.596937123,165.994301 6.83689231,172.195975 14.5351091,172.195975 L39.0508417,172.198027 C39.0487761,172.200079 39.0487761,172.200079 39.0467106,172.202131 L61.9947087,172.200079 L84.8828064,172.202131 C84.8807409,172.200079 84.8807409,172.200079 84.8786754,172.198027 L109.394408,172.195975 C117.092625,172.195975 123.334645,165.994301 123.33258,158.345844 L123.318121,35.2707363 L123.330514,35.2707363 L123.330514,35.2727885 Z M68.7159315,165.0031 L55.2156511,165.0031 C53.2120905,165.0031 51.5885868,163.39009 51.5885868,161.39948 C51.5885868,160.701741 51.7910084,160.053254 52.1359513,159.501218 C52.2826036,159.265218 52.4540423,159.045635 52.6502673,158.850679 C53.3071047,158.198087 54.2138708,157.795861 55.2156511,157.795861 L68.7159315,157.795861 C70.0936376,157.795861 71.2916429,158.55927 71.9051042,159.68181 C72.1839503,160.192801 72.3429958,160.777671 72.3429958,161.39948 C72.3429958,162.02129 72.1839503,162.60616 71.9051042,163.117151 C71.2916429,164.239691 70.0936376,165.0031 68.7159315,165.0031 L68.7159315,165.0031 Z M114.399178,146.244166 C114.399178,148.690359 112.40388,150.67276 109.941772,150.67276 L78.7337344,150.67276 L13.9877446,150.67276 C11.5256372,150.67276 9.5303387,148.690359 9.5303387,146.244166 L9.5303387,35.2727885 L9.5303387,35.2727885 L9.5303387,23.2921893 C9.5303387,21.6627621 10.418515,20.2426568 11.7383864,19.4730911 C12.2754233,19.1611605 12.8806225,18.9518386 13.5312633,18.886169 C13.6799812,18.8718038 13.8328301,18.8635951 13.9877446,18.8635951 L109.941772,18.8635951 C110.825818,18.8635951 111.647897,19.1221691 112.341914,19.565439 C113.577099,20.3534743 114.399178,21.7263796 114.399178,23.2921893 L114.399178,35.2727885 L114.399178,35.2727885 L114.399178,146.244166 L114.399178,146.244166 Z" id="Shape"></path>
                                </g>
                            </g>
                        </g>
                        <text id="7:20-AM" font-family="Avenir-Book, Avenir" font-size="58.0804553" font-weight="normal" letter-spacing="1.66666663" fill="#FFFFFF">
                            <tspan x="630.458853" y="58">7:2</tspan>
                            <tspan x="716.190685" y="58" letter-spacing="0.138888881">0 AM</tspan>
                        </text>
                        <rect id="Rectangle-15-Copy" fill-opacity="0.22" fill="#D8D8D8" x="0" y="470.662939" width="1487.17899" height="313.775293" rx="8"></rect>
                        <g id="weather" transform="translate(129.740876, 842.544767)" fill="#FFFFFF">
                            <g id="Clock-Copy" transform="translate(298.210371, 0.000000)" font-size="154.881214" font-family="Avenir-Book, Avenir" font-weight="normal">
                                <text id="Weather">
                                    <tspan x="0" y="155">Weather</tspan>
                                </text>
                            </g>
                            <g id="Weather-icon-Copy" transform="translate(0.000000, 42.611460)">
                                <path d="M138.987333,42.829359 C132.669727,18.2551366 110.909084,0 84.2347475,0 C63.1760607,0 44.9251987,11.2339302 35.0978115,28.7869462 C15.443037,32.2975494 0,49.1484448 0,70.2120639 C0,93.3820451 18.9528182,112.339302 42.1173738,112.339302 L133.371684,112.339302 C153.026458,112.339302 168.469495,96.8926483 168.469495,77.2332703 C168.469495,59.6802544 155.834283,44.9357209 138.987333,42.829359 L138.987333,42.829359 Z" id="Shape"></path>
                            </g>
                        </g>
                    </g>
                </g>
            </g>
        </g>
    </g>
</svg>